<svg width="870" height="255" viewBox="0 0 870 255" fill="none" xmlns="http://www.w3.org/2000/svg">
<path d="M315.211 186.16C313.344 186.16 311.664 185.84 310.171 185.2C308.678 184.533 307.504 183.6 306.651 182.4C305.798 181.2 305.371 179.8 305.371 178.2H310.251C310.358 179.4 310.824 180.387 311.651 181.16C312.504 181.933 313.691 182.32 315.211 182.32C316.784 182.32 318.011 181.947 318.891 181.2C319.771 180.427 320.211 179.44 320.211 178.24C320.211 177.307 319.931 176.547 319.371 175.96C318.838 175.373 318.158 174.92 317.331 174.6C316.531 174.28 315.411 173.933 313.971 173.56C312.158 173.08 310.678 172.6 309.531 172.12C308.411 171.613 307.451 170.84 306.651 169.8C305.851 168.76 305.451 167.373 305.451 165.64C305.451 164.04 305.851 162.64 306.651 161.44C307.451 160.24 308.571 159.32 310.011 158.68C311.451 158.04 313.118 157.72 315.011 157.72C317.704 157.72 319.904 158.4 321.611 159.76C323.344 161.093 324.304 162.933 324.491 165.28H319.451C319.371 164.267 318.891 163.4 318.011 162.68C317.131 161.96 315.971 161.6 314.531 161.6C313.224 161.6 312.158 161.933 311.331 162.6C310.504 163.267 310.091 164.227 310.091 165.48C310.091 166.333 310.344 167.04 310.851 167.6C311.384 168.133 312.051 168.56 312.851 168.88C313.651 169.2 314.744 169.547 316.131 169.92C317.971 170.427 319.464 170.933 320.611 171.44C321.784 171.947 322.771 172.733 323.571 173.8C324.398 174.84 324.811 176.24 324.811 178C324.811 179.413 324.424 180.747 323.651 182C322.904 183.253 321.798 184.267 320.331 185.04C318.891 185.787 317.184 186.16 315.211 186.16Z" fill="white"/>
<path d="M332.511 160.92C331.685 160.92 330.991 160.64 330.431 160.08C329.871 159.52 329.591 158.827 329.591 158C329.591 157.173 329.871 156.48 330.431 155.92C330.991 155.36 331.685 155.08 332.511 155.08C333.311 155.08 333.991 155.36 334.551 155.92C335.111 156.48 335.391 157.173 335.391 158C335.391 158.827 335.111 159.52 334.551 160.08C333.991 160.64 333.311 160.92 332.511 160.92ZM334.751 163.84V185.88H330.191V163.84H334.751Z" fill="white"/>
<path d="M348.738 186.24C347.005 186.24 345.445 185.933 344.058 185.32C342.698 184.68 341.618 183.827 340.818 182.76C340.018 181.667 339.592 180.453 339.538 179.12H344.258C344.338 180.053 344.778 180.84 345.578 181.48C346.405 182.093 347.432 182.4 348.658 182.4C349.938 182.4 350.925 182.16 351.618 181.68C352.338 181.173 352.698 180.533 352.698 179.76C352.698 178.933 352.298 178.32 351.498 177.92C350.725 177.52 349.485 177.08 347.778 176.6C346.125 176.147 344.778 175.707 343.738 175.28C342.698 174.853 341.792 174.2 341.018 173.32C340.272 172.44 339.898 171.28 339.898 169.84C339.898 168.667 340.245 167.6 340.938 166.64C341.632 165.653 342.618 164.88 343.898 164.32C345.205 163.76 346.698 163.48 348.378 163.48C350.885 163.48 352.898 164.12 354.418 165.4C355.965 166.653 356.792 168.373 356.898 170.56H352.338C352.258 169.573 351.858 168.787 351.138 168.2C350.418 167.613 349.445 167.32 348.218 167.32C347.018 167.32 346.098 167.547 345.458 168C344.818 168.453 344.498 169.053 344.498 169.8C344.498 170.387 344.712 170.88 345.138 171.28C345.565 171.68 346.085 172 346.698 172.24C347.312 172.453 348.218 172.733 349.418 173.08C351.018 173.507 352.325 173.947 353.338 174.4C354.378 174.827 355.272 175.467 356.018 176.32C356.765 177.173 357.152 178.307 357.178 179.72C357.178 180.973 356.832 182.093 356.138 183.08C355.445 184.067 354.458 184.84 353.178 185.4C351.925 185.96 350.445 186.24 348.738 186.24Z" fill="white"/>
<path d="M367.426 167.56V179.76C367.426 180.587 367.612 181.187 367.986 181.56C368.386 181.907 369.052 182.08 369.986 182.08H372.786V185.88H369.186C367.132 185.88 365.559 185.4 364.466 184.44C363.372 183.48 362.826 181.92 362.826 179.76V167.56H360.226V163.84H362.826V158.36H367.426V163.84H372.786V167.56H367.426Z" fill="white"/>
<path d="M397.188 174.32C397.188 175.147 397.135 175.893 397.028 176.56H380.188C380.322 178.32 380.975 179.733 382.148 180.8C383.322 181.867 384.762 182.4 386.468 182.4C388.922 182.4 390.655 181.373 391.668 179.32H396.588C395.922 181.347 394.708 183.013 392.948 184.32C391.215 185.6 389.055 186.24 386.468 186.24C384.362 186.24 382.468 185.773 380.788 184.84C379.135 183.88 377.828 182.547 376.868 180.84C375.935 179.107 375.468 177.107 375.468 174.84C375.468 172.573 375.922 170.587 376.828 168.88C377.762 167.147 379.055 165.813 380.708 164.88C382.388 163.947 384.308 163.48 386.468 163.48C388.548 163.48 390.402 163.933 392.028 164.84C393.655 165.747 394.922 167.027 395.828 168.68C396.735 170.307 397.188 172.187 397.188 174.32ZM392.428 172.88C392.402 171.2 391.802 169.853 390.628 168.84C389.455 167.827 388.002 167.32 386.268 167.32C384.695 167.32 383.348 167.827 382.228 168.84C381.108 169.827 380.442 171.173 380.228 172.88H392.428Z" fill="white"/>
<path d="M428.356 163.48C430.089 163.48 431.636 163.84 432.996 164.56C434.383 165.28 435.463 166.347 436.236 167.76C437.036 169.173 437.436 170.88 437.436 172.88V185.88H432.916V173.56C432.916 171.587 432.423 170.08 431.436 169.04C430.449 167.973 429.103 167.44 427.396 167.44C425.689 167.44 424.329 167.973 423.316 169.04C422.329 170.08 421.836 171.587 421.836 173.56V185.88H417.316V173.56C417.316 171.587 416.823 170.08 415.836 169.04C414.849 167.973 413.503 167.44 411.796 167.44C410.089 167.44 408.729 167.973 407.716 169.04C406.729 170.08 406.236 171.587 406.236 173.56V185.88H401.676V163.84H406.236V166.36C406.983 165.453 407.929 164.747 409.076 164.24C410.223 163.733 411.449 163.48 412.756 163.48C414.516 163.48 416.089 163.853 417.476 164.6C418.863 165.347 419.929 166.427 420.676 167.84C421.343 166.507 422.383 165.453 423.796 164.68C425.209 163.88 426.729 163.48 428.356 163.48Z" fill="white"/>
<path d="M458.189 158.08V185.88H453.629V158.08H458.189Z" fill="white"/>
<path d="M475.296 163.48C477.029 163.48 478.576 163.84 479.936 164.56C481.323 165.28 482.403 166.347 483.176 167.76C483.949 169.173 484.336 170.88 484.336 172.88V185.88H479.816V173.56C479.816 171.587 479.323 170.08 478.336 169.04C477.349 167.973 476.003 167.44 474.296 167.44C472.589 167.44 471.229 167.973 470.216 169.04C469.229 170.08 468.736 171.587 468.736 173.56V185.88H464.176V163.84H468.736V166.36C469.483 165.453 470.429 164.747 471.576 164.24C472.749 163.733 473.989 163.48 475.296 163.48Z" fill="white"/>
<path d="M499.392 167.56H495.312V185.88H490.712V167.56H488.112V163.84H490.712V162.28C490.712 159.747 491.379 157.907 492.712 156.76C494.072 155.587 496.192 155 499.072 155V158.8C497.686 158.8 496.712 159.067 496.152 159.6C495.592 160.107 495.312 161 495.312 162.28V163.84H499.392V167.56Z" fill="white"/>
<path d="M512.994 186.24C510.914 186.24 509.034 185.773 507.354 184.84C505.674 183.88 504.354 182.547 503.394 180.84C502.434 179.107 501.954 177.107 501.954 174.84C501.954 172.6 502.447 170.613 503.434 168.88C504.42 167.147 505.767 165.813 507.474 164.88C509.18 163.947 511.087 163.48 513.194 163.48C515.3 163.48 517.207 163.947 518.914 164.88C520.62 165.813 521.967 167.147 522.954 168.88C523.94 170.613 524.434 172.6 524.434 174.84C524.434 177.08 523.927 179.067 522.914 180.8C521.9 182.533 520.514 183.88 518.754 184.84C517.02 185.773 515.1 186.24 512.994 186.24ZM512.994 182.28C514.167 182.28 515.26 182 516.274 181.44C517.314 180.88 518.154 180.04 518.794 178.92C519.434 177.8 519.754 176.44 519.754 174.84C519.754 173.24 519.447 171.893 518.834 170.8C518.22 169.68 517.407 168.84 516.394 168.28C515.38 167.72 514.287 167.44 513.114 167.44C511.94 167.44 510.847 167.72 509.834 168.28C508.847 168.84 508.06 169.68 507.474 170.8C506.887 171.893 506.594 173.24 506.594 174.84C506.594 177.213 507.194 179.053 508.394 180.36C509.62 181.64 511.154 182.28 512.994 182.28Z" fill="white"/>
<path d="M533.501 167.04C534.168 165.92 535.048 165.053 536.141 164.44C537.261 163.8 538.581 163.48 540.101 163.48V168.2H538.941C537.155 168.2 535.795 168.653 534.861 169.56C533.955 170.467 533.501 172.04 533.501 174.28V185.88H528.941V163.84H533.501V167.04Z" fill="white"/>
<path d="M570.973 163.48C572.706 163.48 574.253 163.84 575.613 164.56C577 165.28 578.08 166.347 578.853 167.76C579.653 169.173 580.053 170.88 580.053 172.88V185.88H575.533V173.56C575.533 171.587 575.04 170.08 574.053 169.04C573.066 167.973 571.72 167.44 570.013 167.44C568.306 167.44 566.946 167.973 565.933 169.04C564.946 170.08 564.453 171.587 564.453 173.56V185.88H559.933V173.56C559.933 171.587 559.44 170.08 558.453 169.04C557.466 167.973 556.12 167.44 554.413 167.44C552.706 167.44 551.346 167.973 550.333 169.04C549.346 170.08 548.853 171.587 548.853 173.56V185.88H544.293V163.84H548.853V166.36C549.6 165.453 550.546 164.747 551.693 164.24C552.84 163.733 554.066 163.48 555.373 163.48C557.133 163.48 558.706 163.853 560.093 164.6C561.48 165.347 562.546 166.427 563.293 167.84C563.96 166.507 565 165.453 566.413 164.68C567.826 163.88 569.346 163.48 570.973 163.48Z" fill="white"/>
<path d="M584.336 174.76C584.336 172.547 584.789 170.587 585.696 168.88C586.629 167.173 587.882 165.853 589.456 164.92C591.056 163.96 592.816 163.48 594.736 163.48C596.469 163.48 597.976 163.827 599.256 164.52C600.562 165.187 601.602 166.027 602.376 167.04V163.84H606.976V185.88H602.376V182.6C601.602 183.64 600.549 184.507 599.216 185.2C597.882 185.893 596.362 186.24 594.656 186.24C592.762 186.24 591.029 185.76 589.456 184.8C587.882 183.813 586.629 182.453 585.696 180.72C584.789 178.96 584.336 176.973 584.336 174.76ZM602.376 174.84C602.376 173.32 602.056 172 601.416 170.88C600.802 169.76 599.989 168.907 598.976 168.32C597.962 167.733 596.869 167.44 595.696 167.44C594.522 167.44 593.429 167.733 592.416 168.32C591.402 168.88 590.576 169.72 589.936 170.84C589.322 171.933 589.016 173.24 589.016 174.76C589.016 176.28 589.322 177.613 589.936 178.76C590.576 179.907 591.402 180.787 592.416 181.4C593.456 181.987 594.549 182.28 595.696 182.28C596.869 182.28 597.962 181.987 598.976 181.4C599.989 180.813 600.802 179.96 601.416 178.84C602.056 177.693 602.376 176.36 602.376 174.84Z" fill="white"/>
<path d="M620.965 186.24C619.232 186.24 617.672 185.933 616.285 185.32C614.925 184.68 613.845 183.827 613.045 182.76C612.245 181.667 611.818 180.453 611.765 179.12H616.485C616.565 180.053 617.005 180.84 617.805 181.48C618.632 182.093 619.658 182.4 620.885 182.4C622.165 182.4 623.152 182.16 623.845 181.68C624.565 181.173 624.925 180.533 624.925 179.76C624.925 178.933 624.525 178.32 623.725 177.92C622.952 177.52 621.712 177.08 620.005 176.6C618.352 176.147 617.005 175.707 615.965 175.28C614.925 174.853 614.018 174.2 613.245 173.32C612.498 172.44 612.125 171.28 612.125 169.84C612.125 168.667 612.472 167.6 613.165 166.64C613.858 165.653 614.845 164.88 616.125 164.32C617.432 163.76 618.925 163.48 620.605 163.48C623.112 163.48 625.125 164.12 626.645 165.4C628.192 166.653 629.018 168.373 629.125 170.56H624.565C624.485 169.573 624.085 168.787 623.365 168.2C622.645 167.613 621.672 167.32 620.445 167.32C619.245 167.32 618.325 167.547 617.685 168C617.045 168.453 616.725 169.053 616.725 169.8C616.725 170.387 616.938 170.88 617.365 171.28C617.792 171.68 618.312 172 618.925 172.24C619.538 172.453 620.445 172.733 621.645 173.08C623.245 173.507 624.552 173.947 625.565 174.4C626.605 174.827 627.498 175.467 628.245 176.32C628.992 177.173 629.378 178.307 629.405 179.72C629.405 180.973 629.058 182.093 628.365 183.08C627.672 184.067 626.685 184.84 625.405 185.4C624.152 185.96 622.672 186.24 620.965 186.24Z" fill="white"/>
<path d="M636.652 160.92C635.825 160.92 635.132 160.64 634.572 160.08C634.012 159.52 633.732 158.827 633.732 158C633.732 157.173 634.012 156.48 634.572 155.92C635.132 155.36 635.825 155.08 636.652 155.08C637.452 155.08 638.132 155.36 638.692 155.92C639.252 156.48 639.532 157.173 639.532 158C639.532 158.827 639.252 159.52 638.692 160.08C638.132 160.64 637.452 160.92 636.652 160.92ZM638.892 163.84V185.88H634.332V163.84H638.892Z" fill="white"/>
<path d="M684.55 158.08V185.88H679.99V166.84L671.51 185.88H668.35L659.83 166.84V185.88H655.27V158.08H660.19L669.95 179.88L679.67 158.08H684.55Z" fill="white"/>
<path d="M700.103 186.24C698.023 186.24 696.143 185.773 694.463 184.84C692.783 183.88 691.463 182.547 690.503 180.84C689.543 179.107 689.063 177.107 689.063 174.84C689.063 172.6 689.556 170.613 690.543 168.88C691.53 167.147 692.876 165.813 694.583 164.88C696.29 163.947 698.196 163.48 700.303 163.48C702.41 163.48 704.316 163.947 706.023 164.88C707.73 165.813 709.076 167.147 710.063 168.88C711.05 170.613 711.543 172.6 711.543 174.84C711.543 177.08 711.036 179.067 710.023 180.8C709.01 182.533 707.623 183.88 705.863 184.84C704.13 185.773 702.21 186.24 700.103 186.24ZM700.103 182.28C701.276 182.28 702.37 182 703.383 181.44C704.423 180.88 705.263 180.04 705.903 178.92C706.543 177.8 706.863 176.44 706.863 174.84C706.863 173.24 706.556 171.893 705.943 170.8C705.33 169.68 704.516 168.84 703.503 168.28C702.49 167.72 701.396 167.44 700.223 167.44C699.05 167.44 697.956 167.72 696.943 168.28C695.956 168.84 695.17 169.68 694.583 170.8C693.996 171.893 693.703 173.24 693.703 174.84C693.703 177.213 694.303 179.053 695.503 180.36C696.73 181.64 698.263 182.28 700.103 182.28Z" fill="white"/>
<path d="M727.171 163.48C728.904 163.48 730.451 163.84 731.811 164.56C733.198 165.28 734.277 166.347 735.051 167.76C735.824 169.173 736.211 170.88 736.211 172.88V185.88H731.691V173.56C731.691 171.587 731.198 170.08 730.211 169.04C729.224 167.973 727.878 167.44 726.171 167.44C724.464 167.44 723.104 167.973 722.091 169.04C721.104 170.08 720.611 171.587 720.611 173.56V185.88H716.051V163.84H720.611V166.36C721.358 165.453 722.304 164.747 723.451 164.24C724.624 163.733 725.864 163.48 727.171 163.48Z" fill="white"/>
<path d="M744.347 160.92C743.521 160.92 742.827 160.64 742.267 160.08C741.707 159.52 741.427 158.827 741.427 158C741.427 157.173 741.707 156.48 742.267 155.92C742.827 155.36 743.521 155.08 744.347 155.08C745.147 155.08 745.827 155.36 746.387 155.92C746.947 156.48 747.227 157.173 747.227 158C747.227 158.827 746.947 159.52 746.387 160.08C745.827 160.64 745.147 160.92 744.347 160.92ZM746.587 163.84V185.88H742.027V163.84H746.587Z" fill="white"/>
<path d="M757.894 167.56V179.76C757.894 180.587 758.081 181.187 758.454 181.56C758.854 181.907 759.521 182.08 760.454 182.08H763.254V185.88H759.654C757.601 185.88 756.028 185.4 754.934 184.44C753.841 183.48 753.294 181.92 753.294 179.76V167.56H750.694V163.84H753.294V158.36H757.894V163.84H763.254V167.56H757.894Z" fill="white"/>
<path d="M777.017 186.24C774.937 186.24 773.057 185.773 771.377 184.84C769.697 183.88 768.377 182.547 767.417 180.84C766.457 179.107 765.977 177.107 765.977 174.84C765.977 172.6 766.47 170.613 767.457 168.88C768.444 167.147 769.79 165.813 771.497 164.88C773.204 163.947 775.11 163.48 777.217 163.48C779.324 163.48 781.23 163.947 782.937 164.88C784.644 165.813 785.99 167.147 786.977 168.88C787.964 170.613 788.457 172.6 788.457 174.84C788.457 177.08 787.95 179.067 786.937 180.8C785.924 182.533 784.537 183.88 782.777 184.84C781.044 185.773 779.124 186.24 777.017 186.24ZM777.017 182.28C778.19 182.28 779.284 182 780.297 181.44C781.337 180.88 782.177 180.04 782.817 178.92C783.457 177.8 783.777 176.44 783.777 174.84C783.777 173.24 783.47 171.893 782.857 170.8C782.244 169.68 781.43 168.84 780.417 168.28C779.404 167.72 778.31 167.44 777.137 167.44C775.964 167.44 774.87 167.72 773.857 168.28C772.87 168.84 772.084 169.68 771.497 170.8C770.91 171.893 770.617 173.24 770.617 174.84C770.617 177.213 771.217 179.053 772.417 180.36C773.644 181.64 775.177 182.28 777.017 182.28Z" fill="white"/>
<path d="M797.525 167.04C798.192 165.92 799.072 165.053 800.165 164.44C801.285 163.8 802.605 163.48 804.125 163.48V168.2H802.965C801.178 168.2 799.818 168.653 798.885 169.56C797.978 170.467 797.525 172.04 797.525 174.28V185.88H792.965V163.84H797.525V167.04Z" fill="white"/>
<path d="M810.636 160.92C809.81 160.92 809.116 160.64 808.556 160.08C807.996 159.52 807.716 158.827 807.716 158C807.716 157.173 807.996 156.48 808.556 155.92C809.116 155.36 809.81 155.08 810.636 155.08C811.436 155.08 812.116 155.36 812.676 155.92C813.236 156.48 813.516 157.173 813.516 158C813.516 158.827 813.236 159.52 812.676 160.08C812.116 160.64 811.436 160.92 810.636 160.92ZM812.876 163.84V185.88H808.316V163.84H812.876Z" fill="white"/>
<path d="M829.983 163.48C831.717 163.48 833.263 163.84 834.623 164.56C836.01 165.28 837.09 166.347 837.863 167.76C838.637 169.173 839.023 170.88 839.023 172.88V185.88H834.503V173.56C834.503 171.587 834.01 170.08 833.023 169.04C832.037 167.973 830.69 167.44 828.983 167.44C827.277 167.44 825.917 167.973 824.903 169.04C823.917 170.08 823.423 171.587 823.423 173.56V185.88H818.863V163.84H823.423V166.36C824.17 165.453 825.117 164.747 826.263 164.24C827.437 163.733 828.677 163.48 829.983 163.48Z" fill="white"/>
<path d="M853.72 163.48C855.427 163.48 856.933 163.827 858.24 164.52C859.573 165.187 860.613 166.027 861.36 167.04V163.84H865.96V186.24C865.96 188.267 865.533 190.067 864.68 191.64C863.827 193.24 862.587 194.493 860.96 195.4C859.36 196.307 857.44 196.76 855.2 196.76C852.213 196.76 849.733 196.053 847.76 194.64C845.787 193.253 844.667 191.36 844.4 188.96H848.92C849.267 190.107 850 191.027 851.12 191.72C852.267 192.44 853.627 192.8 855.2 192.8C857.04 192.8 858.52 192.24 859.64 191.12C860.787 190 861.36 188.373 861.36 186.24V182.56C860.587 183.6 859.533 184.48 858.2 185.2C856.893 185.893 855.4 186.24 853.72 186.24C851.8 186.24 850.04 185.76 848.44 184.8C846.867 183.813 845.613 182.453 844.68 180.72C843.773 178.96 843.32 176.973 843.32 174.76C843.32 172.547 843.773 170.587 844.68 168.88C845.613 167.173 846.867 165.853 848.44 164.92C850.04 163.96 851.8 163.48 853.72 163.48ZM861.36 174.84C861.36 173.32 861.04 172 860.4 170.88C859.787 169.76 858.973 168.907 857.96 168.32C856.947 167.733 855.853 167.44 854.68 167.44C853.507 167.44 852.413 167.733 851.4 168.32C850.387 168.88 849.56 169.72 848.92 170.84C848.307 171.933 848 173.24 848 174.76C848 176.28 848.307 177.613 848.92 178.76C849.56 179.907 850.387 180.787 851.4 181.4C852.44 181.987 853.533 182.28 854.68 182.28C855.853 182.28 856.947 181.987 857.96 181.4C858.973 180.813 859.787 179.96 860.4 178.84C861.04 177.693 861.36 176.36 861.36 174.84Z" fill="white"/>
<path d="M339.807 215.36C339.807 216.773 339.474 218.107 338.807 219.36C338.141 220.613 337.074 221.64 335.607 222.44C334.141 223.213 332.261 223.6 329.967 223.6H324.927V234.88H320.367V207.08H329.967C332.101 207.08 333.901 207.453 335.367 208.2C336.861 208.92 337.967 209.907 338.687 211.16C339.434 212.413 339.807 213.813 339.807 215.36ZM329.967 219.88C331.701 219.88 332.994 219.493 333.847 218.72C334.701 217.92 335.127 216.8 335.127 215.36C335.127 212.32 333.407 210.8 329.967 210.8H324.927V219.88H329.967Z" fill="white"/>
<path d="M364.356 223.32C364.356 224.147 364.303 224.893 364.196 225.56H347.356C347.49 227.32 348.143 228.733 349.316 229.8C350.49 230.867 351.93 231.4 353.636 231.4C356.09 231.4 357.823 230.373 358.836 228.32H363.756C363.09 230.347 361.876 232.013 360.116 233.32C358.383 234.6 356.223 235.24 353.636 235.24C351.53 235.24 349.636 234.773 347.956 233.84C346.303 232.88 344.996 231.547 344.036 229.84C343.103 228.107 342.636 226.107 342.636 223.84C342.636 221.573 343.09 219.587 343.996 217.88C344.93 216.147 346.223 214.813 347.876 213.88C349.556 212.947 351.476 212.48 353.636 212.48C355.716 212.48 357.57 212.933 359.196 213.84C360.823 214.747 362.09 216.027 362.996 217.68C363.903 219.307 364.356 221.187 364.356 223.32ZM359.596 221.88C359.57 220.2 358.97 218.853 357.796 217.84C356.623 216.827 355.17 216.32 353.436 216.32C351.863 216.32 350.516 216.827 349.396 217.84C348.276 218.827 347.61 220.173 347.396 221.88H359.596Z" fill="white"/>
<path d="M379.964 212.48C381.697 212.48 383.244 212.84 384.604 213.56C385.99 214.28 387.07 215.347 387.844 216.76C388.617 218.173 389.004 219.88 389.004 221.88V234.88H384.484V222.56C384.484 220.587 383.99 219.08 383.004 218.04C382.017 216.973 380.67 216.44 378.964 216.44C377.257 216.44 375.897 216.973 374.884 218.04C373.897 219.08 373.404 220.587 373.404 222.56V234.88H368.844V212.84H373.404V215.36C374.15 214.453 375.097 213.747 376.244 213.24C377.417 212.733 378.657 212.48 379.964 212.48Z" fill="white"/>
<path d="M414.78 212.84V234.88H410.22V232.28C409.5 233.187 408.554 233.907 407.38 234.44C406.234 234.947 405.007 235.2 403.7 235.2C401.967 235.2 400.407 234.84 399.02 234.12C397.66 233.4 396.58 232.333 395.78 230.92C395.007 229.507 394.62 227.8 394.62 225.8V212.84H399.14V225.12C399.14 227.093 399.634 228.613 400.62 229.68C401.607 230.72 402.954 231.24 404.66 231.24C406.367 231.24 407.714 230.72 408.7 229.68C409.714 228.613 410.22 227.093 410.22 225.12V212.84H414.78Z" fill="white"/>
<path d="M429.677 212.48C431.384 212.48 432.89 212.827 434.197 213.52C435.53 214.187 436.57 215.027 437.317 216.04V212.84H441.917V235.24C441.917 237.267 441.49 239.067 440.637 240.64C439.784 242.24 438.544 243.493 436.917 244.4C435.317 245.307 433.397 245.76 431.157 245.76C428.17 245.76 425.69 245.053 423.717 243.64C421.744 242.253 420.624 240.36 420.357 237.96H424.877C425.224 239.107 425.957 240.027 427.077 240.72C428.224 241.44 429.584 241.8 431.157 241.8C432.997 241.8 434.477 241.24 435.597 240.12C436.744 239 437.317 237.373 437.317 235.24V231.56C436.544 232.6 435.49 233.48 434.157 234.2C432.85 234.893 431.357 235.24 429.677 235.24C427.757 235.24 425.997 234.76 424.397 233.8C422.824 232.813 421.57 231.453 420.637 229.72C419.73 227.96 419.277 225.973 419.277 223.76C419.277 221.547 419.73 219.587 420.637 217.88C421.57 216.173 422.824 214.853 424.397 213.92C425.997 212.96 427.757 212.48 429.677 212.48ZM437.317 223.84C437.317 222.32 436.997 221 436.357 219.88C435.744 218.76 434.93 217.907 433.917 217.32C432.904 216.733 431.81 216.44 430.637 216.44C429.464 216.44 428.37 216.733 427.357 217.32C426.344 217.88 425.517 218.72 424.877 219.84C424.264 220.933 423.957 222.24 423.957 223.76C423.957 225.28 424.264 226.613 424.877 227.76C425.517 228.907 426.344 229.787 427.357 230.4C428.397 230.987 429.49 231.28 430.637 231.28C431.81 231.28 432.904 230.987 433.917 230.4C434.93 229.813 435.744 228.96 436.357 227.84C436.997 226.693 437.317 225.36 437.317 223.84Z" fill="white"/>
<path d="M446.386 223.76C446.386 221.547 446.84 219.587 447.746 217.88C448.68 216.173 449.933 214.853 451.506 213.92C453.106 212.96 454.866 212.48 456.786 212.48C458.52 212.48 460.026 212.827 461.306 213.52C462.613 214.187 463.653 215.027 464.426 216.04V212.84H469.026V234.88H464.426V231.6C463.653 232.64 462.6 233.507 461.266 234.2C459.933 234.893 458.413 235.24 456.706 235.24C454.813 235.24 453.08 234.76 451.506 233.8C449.933 232.813 448.68 231.453 447.746 229.72C446.84 227.96 446.386 225.973 446.386 223.76ZM464.426 223.84C464.426 222.32 464.106 221 463.466 219.88C462.853 218.76 462.04 217.907 461.026 217.32C460.013 216.733 458.92 216.44 457.746 216.44C456.573 216.44 455.48 216.733 454.466 217.32C453.453 217.88 452.626 218.72 451.986 219.84C451.373 220.933 451.066 222.24 451.066 223.76C451.066 225.28 451.373 226.613 451.986 227.76C452.626 228.907 453.453 229.787 454.466 230.4C455.506 230.987 456.6 231.28 457.746 231.28C458.92 231.28 460.013 230.987 461.026 230.4C462.04 229.813 462.853 228.96 463.466 227.84C464.106 226.693 464.426 225.36 464.426 223.84Z" fill="white"/>
<path d="M483.016 235.24C481.282 235.24 479.722 234.933 478.336 234.32C476.976 233.68 475.896 232.827 475.096 231.76C474.296 230.667 473.869 229.453 473.816 228.12H478.536C478.616 229.053 479.056 229.84 479.856 230.48C480.682 231.093 481.709 231.4 482.936 231.4C484.216 231.4 485.202 231.16 485.896 230.68C486.616 230.173 486.976 229.533 486.976 228.76C486.976 227.933 486.576 227.32 485.776 226.92C485.002 226.52 483.762 226.08 482.056 225.6C480.402 225.147 479.056 224.707 478.016 224.28C476.976 223.853 476.069 223.2 475.296 222.32C474.549 221.44 474.176 220.28 474.176 218.84C474.176 217.667 474.522 216.6 475.216 215.64C475.909 214.653 476.896 213.88 478.176 213.32C479.482 212.76 480.976 212.48 482.656 212.48C485.162 212.48 487.176 213.12 488.696 214.4C490.242 215.653 491.069 217.373 491.176 219.56H486.616C486.536 218.573 486.136 217.787 485.416 217.2C484.696 216.613 483.722 216.32 482.496 216.32C481.296 216.32 480.376 216.547 479.736 217C479.096 217.453 478.776 218.053 478.776 218.8C478.776 219.387 478.989 219.88 479.416 220.28C479.842 220.68 480.362 221 480.976 221.24C481.589 221.453 482.496 221.733 483.696 222.08C485.296 222.507 486.602 222.947 487.616 223.4C488.656 223.827 489.549 224.467 490.296 225.32C491.042 226.173 491.429 227.307 491.456 228.72C491.456 229.973 491.109 231.093 490.416 232.08C489.722 233.067 488.736 233.84 487.456 234.4C486.202 234.96 484.722 235.24 483.016 235.24Z" fill="white"/>
<path d="M494.863 223.76C494.863 221.547 495.316 219.587 496.223 217.88C497.156 216.173 498.41 214.853 499.983 213.92C501.583 212.96 503.343 212.48 505.263 212.48C506.996 212.48 508.503 212.827 509.783 213.52C511.09 214.187 512.13 215.027 512.903 216.04V212.84H517.503V234.88H512.903V231.6C512.13 232.64 511.076 233.507 509.743 234.2C508.41 234.893 506.89 235.24 505.183 235.24C503.29 235.24 501.556 234.76 499.983 233.8C498.41 232.813 497.156 231.453 496.223 229.72C495.316 227.96 494.863 225.973 494.863 223.76ZM512.903 223.84C512.903 222.32 512.583 221 511.943 219.88C511.33 218.76 510.516 217.907 509.503 217.32C508.49 216.733 507.396 216.44 506.223 216.44C505.05 216.44 503.956 216.733 502.943 217.32C501.93 217.88 501.103 218.72 500.463 219.84C499.85 220.933 499.543 222.24 499.543 223.76C499.543 225.28 499.85 226.613 500.463 227.76C501.103 228.907 501.93 229.787 502.943 230.4C503.983 230.987 505.076 231.28 506.223 231.28C507.396 231.28 508.49 230.987 509.503 230.4C510.516 229.813 511.33 228.96 511.943 227.84C512.583 226.693 512.903 225.36 512.903 223.84Z" fill="white"/>
<path d="M534.612 212.48C536.346 212.48 537.892 212.84 539.252 213.56C540.639 214.28 541.719 215.347 542.492 216.76C543.266 218.173 543.652 219.88 543.652 221.88V234.88H539.132V222.56C539.132 220.587 538.639 219.08 537.652 218.04C536.666 216.973 535.319 216.44 533.612 216.44C531.906 216.44 530.546 216.973 529.532 218.04C528.546 219.08 528.052 220.587 528.052 222.56V234.88H523.492V212.84H528.052V215.36C528.799 214.453 529.746 213.747 530.892 213.24C532.066 212.733 533.306 212.48 534.612 212.48Z" fill="white"/>
<path d="M558.339 223.76C558.339 221.547 558.793 219.587 559.699 217.88C560.633 216.173 561.886 214.853 563.459 213.92C565.059 212.96 566.833 212.48 568.779 212.48C570.219 212.48 571.633 212.8 573.019 213.44C574.433 214.053 575.553 214.88 576.379 215.92V205.28H580.979V234.88H576.379V231.56C575.633 232.627 574.593 233.507 573.259 234.2C571.953 234.893 570.446 235.24 568.739 235.24C566.819 235.24 565.059 234.76 563.459 233.8C561.886 232.813 560.633 231.453 559.699 229.72C558.793 227.96 558.339 225.973 558.339 223.76ZM576.379 223.84C576.379 222.32 576.059 221 575.419 219.88C574.806 218.76 573.993 217.907 572.979 217.32C571.966 216.733 570.873 216.44 569.699 216.44C568.526 216.44 567.433 216.733 566.419 217.32C565.406 217.88 564.579 218.72 563.939 219.84C563.326 220.933 563.019 222.24 563.019 223.76C563.019 225.28 563.326 226.613 563.939 227.76C564.579 228.907 565.406 229.787 566.419 230.4C567.459 230.987 568.553 231.28 569.699 231.28C570.873 231.28 571.966 230.987 572.979 230.4C573.993 229.813 574.806 228.96 575.419 227.84C576.059 226.693 576.379 225.36 576.379 223.84Z" fill="white"/>
<path d="M585.449 223.76C585.449 221.547 585.902 219.587 586.809 217.88C587.742 216.173 588.995 214.853 590.569 213.92C592.169 212.96 593.929 212.48 595.849 212.48C597.582 212.48 599.089 212.827 600.369 213.52C601.675 214.187 602.715 215.027 603.489 216.04V212.84H608.089V234.88H603.489V231.6C602.715 232.64 601.662 233.507 600.329 234.2C598.995 234.893 597.475 235.24 595.769 235.24C593.875 235.24 592.142 234.76 590.569 233.8C588.995 232.813 587.742 231.453 586.809 229.72C585.902 227.96 585.449 225.973 585.449 223.76ZM603.489 223.84C603.489 222.32 603.169 221 602.529 219.88C601.915 218.76 601.102 217.907 600.089 217.32C599.075 216.733 597.982 216.44 596.809 216.44C595.635 216.44 594.542 216.733 593.529 217.32C592.515 217.88 591.689 218.72 591.049 219.84C590.435 220.933 590.129 222.24 590.129 223.76C590.129 225.28 590.435 226.613 591.049 227.76C591.689 228.907 592.515 229.787 593.529 230.4C594.569 230.987 595.662 231.28 596.809 231.28C597.982 231.28 599.075 230.987 600.089 230.4C601.102 229.813 601.915 228.96 602.529 227.84C603.169 226.693 603.489 225.36 603.489 223.84Z" fill="white"/>
<path d="M625.198 212.48C626.932 212.48 628.478 212.84 629.838 213.56C631.225 214.28 632.305 215.347 633.078 216.76C633.852 218.173 634.238 219.88 634.238 221.88V234.88H629.718V222.56C629.718 220.587 629.225 219.08 628.238 218.04C627.252 216.973 625.905 216.44 624.198 216.44C622.492 216.44 621.132 216.973 620.118 218.04C619.132 219.08 618.638 220.587 618.638 222.56V234.88H614.078V212.84H618.638V215.36C619.385 214.453 620.332 213.747 621.478 213.24C622.652 212.733 623.892 212.48 625.198 212.48Z" fill="white"/>
<path d="M669.885 215.36C669.885 216.773 669.552 218.107 668.885 219.36C668.219 220.613 667.152 221.64 665.685 222.44C664.219 223.213 662.339 223.6 660.045 223.6H655.005V234.88H650.445V207.08H660.045C662.179 207.08 663.979 207.453 665.445 208.2C666.939 208.92 668.045 209.907 668.765 211.16C669.512 212.413 669.885 213.813 669.885 215.36ZM660.045 219.88C661.779 219.88 663.072 219.493 663.925 218.72C664.779 217.92 665.205 216.8 665.205 215.36C665.205 212.32 663.485 210.8 660.045 210.8H655.005V219.88H660.045Z" fill="white"/>
<path d="M694.434 223.32C694.434 224.147 694.381 224.893 694.274 225.56H677.434C677.568 227.32 678.221 228.733 679.394 229.8C680.568 230.867 682.008 231.4 683.714 231.4C686.168 231.4 687.901 230.373 688.914 228.32H693.834C693.168 230.347 691.954 232.013 690.194 233.32C688.461 234.6 686.301 235.24 683.714 235.24C681.608 235.24 679.714 234.773 678.034 233.84C676.381 232.88 675.074 231.547 674.114 229.84C673.181 228.107 672.714 226.107 672.714 223.84C672.714 221.573 673.168 219.587 674.074 217.88C675.008 216.147 676.301 214.813 677.954 213.88C679.634 212.947 681.554 212.48 683.714 212.48C685.794 212.48 687.648 212.933 689.274 213.84C690.901 214.747 692.168 216.027 693.074 217.68C693.981 219.307 694.434 221.187 694.434 223.32ZM689.674 221.88C689.648 220.2 689.048 218.853 687.874 217.84C686.701 216.827 685.248 216.32 683.514 216.32C681.941 216.32 680.594 216.827 679.474 217.84C678.354 218.827 677.688 220.173 677.474 221.88H689.674Z" fill="white"/>
<path d="M703.482 205.28V234.88H698.922V205.28H703.482Z" fill="white"/>
<path d="M707.949 223.76C707.949 221.547 708.402 219.587 709.309 217.88C710.242 216.173 711.495 214.853 713.069 213.92C714.669 212.96 716.429 212.48 718.349 212.48C720.082 212.48 721.589 212.827 722.869 213.52C724.175 214.187 725.215 215.027 725.989 216.04V212.84H730.589V234.88H725.989V231.6C725.215 232.64 724.162 233.507 722.829 234.2C721.495 234.893 719.975 235.24 718.269 235.24C716.375 235.24 714.642 234.76 713.069 233.8C711.495 232.813 710.242 231.453 709.309 229.72C708.402 227.96 707.949 225.973 707.949 223.76ZM725.989 223.84C725.989 222.32 725.669 221 725.029 219.88C724.415 218.76 723.602 217.907 722.589 217.32C721.575 216.733 720.482 216.44 719.309 216.44C718.135 216.44 717.042 216.733 716.029 217.32C715.015 217.88 714.189 218.72 713.549 219.84C712.935 220.933 712.629 222.24 712.629 223.76C712.629 225.28 712.935 226.613 713.549 227.76C714.189 228.907 715.015 229.787 716.029 230.4C717.069 230.987 718.162 231.28 719.309 231.28C720.482 231.28 721.575 230.987 722.589 230.4C723.602 229.813 724.415 228.96 725.029 227.84C725.669 226.693 725.989 225.36 725.989 223.84Z" fill="white"/>
<path d="M741.138 216.08C741.912 215.067 742.965 214.213 744.298 213.52C745.632 212.827 747.138 212.48 748.818 212.48C750.738 212.48 752.485 212.96 754.058 213.92C755.658 214.853 756.912 216.173 757.818 217.88C758.725 219.587 759.178 221.547 759.178 223.76C759.178 225.973 758.725 227.96 757.818 229.72C756.912 231.453 755.658 232.813 754.058 233.8C752.485 234.76 750.738 235.24 748.818 235.24C747.138 235.24 745.645 234.907 744.338 234.24C743.032 233.547 741.965 232.693 741.138 231.68V245.36H736.578V212.84H741.138V216.08ZM754.538 223.76C754.538 222.24 754.218 220.933 753.578 219.84C752.965 218.72 752.138 217.88 751.098 217.32C750.085 216.733 748.992 216.44 747.818 216.44C746.672 216.44 745.578 216.733 744.538 217.32C743.525 217.907 742.698 218.76 742.058 219.88C741.445 221 741.138 222.32 741.138 223.84C741.138 225.36 741.445 226.693 742.058 227.84C742.698 228.96 743.525 229.813 744.538 230.4C745.578 230.987 746.672 231.28 747.818 231.28C748.992 231.28 750.085 230.987 751.098 230.4C752.138 229.787 752.965 228.907 753.578 227.76C754.218 226.613 754.538 225.28 754.538 223.76Z" fill="white"/>
<path d="M773.248 235.24C771.168 235.24 769.288 234.773 767.608 233.84C765.928 232.88 764.608 231.547 763.648 229.84C762.688 228.107 762.208 226.107 762.208 223.84C762.208 221.6 762.701 219.613 763.688 217.88C764.674 216.147 766.021 214.813 767.728 213.88C769.434 212.947 771.341 212.48 773.448 212.48C775.554 212.48 777.461 212.947 779.168 213.88C780.874 214.813 782.221 216.147 783.208 217.88C784.194 219.613 784.688 221.6 784.688 223.84C784.688 226.08 784.181 228.067 783.168 229.8C782.154 231.533 780.768 232.88 779.008 233.84C777.274 234.773 775.354 235.24 773.248 235.24ZM773.248 231.28C774.421 231.28 775.514 231 776.528 230.44C777.568 229.88 778.408 229.04 779.048 227.92C779.688 226.8 780.008 225.44 780.008 223.84C780.008 222.24 779.701 220.893 779.088 219.8C778.474 218.68 777.661 217.84 776.648 217.28C775.634 216.72 774.541 216.44 773.368 216.44C772.194 216.44 771.101 216.72 770.088 217.28C769.101 217.84 768.314 218.68 767.728 219.8C767.141 220.893 766.848 222.24 766.848 223.84C766.848 226.213 767.448 228.053 768.648 229.36C769.874 230.64 771.408 231.28 773.248 231.28Z" fill="white"/>
<path d="M793.755 216.04C794.422 214.92 795.302 214.053 796.395 213.44C797.515 212.8 798.835 212.48 800.355 212.48V217.2H799.195C797.409 217.2 796.049 217.653 795.115 218.56C794.209 219.467 793.755 221.04 793.755 223.28V234.88H789.195V212.84H793.755V216.04Z" fill="white"/>
<path d="M803.027 223.76C803.027 221.547 803.48 219.587 804.387 217.88C805.32 216.173 806.574 214.853 808.147 213.92C809.747 212.96 811.507 212.48 813.427 212.48C815.16 212.48 816.667 212.827 817.947 213.52C819.254 214.187 820.294 215.027 821.067 216.04V212.84H825.667V234.88H821.067V231.6C820.294 232.64 819.24 233.507 817.907 234.2C816.574 234.893 815.054 235.24 813.347 235.24C811.454 235.24 809.72 234.76 808.147 233.8C806.574 232.813 805.32 231.453 804.387 229.72C803.48 227.96 803.027 225.973 803.027 223.76ZM821.067 223.84C821.067 222.32 820.747 221 820.107 219.88C819.494 218.76 818.68 217.907 817.667 217.32C816.654 216.733 815.56 216.44 814.387 216.44C813.214 216.44 812.12 216.733 811.107 217.32C810.094 217.88 809.267 218.72 808.627 219.84C808.014 220.933 807.707 222.24 807.707 223.76C807.707 225.28 808.014 226.613 808.627 227.76C809.267 228.907 810.094 229.787 811.107 230.4C812.147 230.987 813.24 231.28 814.387 231.28C815.56 231.28 816.654 230.987 817.667 230.4C818.68 229.813 819.494 228.96 820.107 227.84C820.747 226.693 821.067 225.36 821.067 223.84Z" fill="white"/>
<path d="M842.776 212.48C844.51 212.48 846.056 212.84 847.416 213.56C848.803 214.28 849.883 215.347 850.656 216.76C851.43 218.173 851.816 219.88 851.816 221.88V234.88H847.296V222.56C847.296 220.587 846.803 219.08 845.816 218.04C844.83 216.973 843.483 216.44 841.776 216.44C840.07 216.44 838.71 216.973 837.696 218.04C836.71 219.08 836.216 220.587 836.216 222.56V234.88H831.656V212.84H836.216V215.36C836.963 214.453 837.91 213.747 839.056 213.24C840.23 212.733 841.47 212.48 842.776 212.48Z" fill="white"/>
<path d="M308.016 64.44C308.016 55.736 311.6 48.6533 318.768 43.192C326.021 37.7307 335.493 35 347.184 35C358.96 35 368.56 37.8587 375.984 43.576C383.493 49.2933 387.248 55.2667 387.248 61.496C387.248 62.264 386.949 62.9467 386.352 63.544C385.84 64.056 385.243 64.312 384.56 64.312H358.96C356.997 64.312 355.205 63.5867 353.584 62.136C351.963 60.6853 349.787 59.96 347.056 59.96C342.96 59.96 340.912 61.1547 340.912 63.544C340.912 64.824 341.893 65.8907 343.856 66.744C345.904 67.5973 349.659 68.3653 355.12 69.048C367.835 70.6693 376.88 73.656 382.256 78.008C387.717 82.2747 390.448 88.8027 390.448 97.592C390.448 106.296 386.437 113.421 378.416 118.968C370.48 124.429 360.069 127.16 347.184 127.16C334.299 127.16 324.187 124.515 316.848 119.224C309.509 113.933 305.84 107.491 305.84 99.896C305.84 99.128 306.096 98.488 306.608 97.976C307.205 97.3787 307.888 97.08 308.656 97.08H332.976C334.768 97.08 336.731 97.9333 338.864 99.64C341.083 101.347 344.112 102.2 347.952 102.2C354.352 102.2 357.552 101.005 357.552 98.616C357.552 97.08 356.4 95.928 354.096 95.16C351.792 94.3067 347.44 93.4533 341.04 92.6C319.024 89.6987 308.016 80.312 308.016 64.44Z" fill="white"/>
<path d="M464.138 125.88H438.026C437.087 125.88 436.277 125.539 435.594 124.856C434.911 124.173 434.57 123.363 434.57 122.424V39.736C434.57 38.7973 434.911 37.9867 435.594 37.304C436.277 36.6213 437.087 36.28 438.026 36.28H464.138C465.077 36.28 465.887 36.6213 466.57 37.304C467.253 37.9867 467.594 38.7973 467.594 39.736V122.424C467.594 123.363 467.253 124.173 466.57 124.856C465.887 125.539 465.077 125.88 464.138 125.88Z" fill="white"/>
<path d="M588.003 36.28H608.227C609.166 36.28 609.976 36.6213 610.659 37.304C611.342 37.9867 611.683 38.7973 611.683 39.736V122.424C611.683 123.363 611.342 124.173 610.659 124.856C609.976 125.539 609.166 125.88 608.227 125.88H585.059C584.12 125.88 583.31 125.539 582.627 124.856C581.944 124.173 581.603 123.363 581.603 122.424V87.352L573.155 101.176C571.79 103.309 570.211 104.376 568.419 104.376H559.459C557.667 104.376 556.088 103.309 554.723 101.176L546.275 87.352V122.424C546.275 123.363 545.934 124.173 545.251 124.856C544.568 125.539 543.758 125.88 542.819 125.88H519.651C518.712 125.88 517.902 125.539 517.219 124.856C516.536 124.173 516.195 123.363 516.195 122.424V39.736C516.195 38.7973 516.536 37.9867 517.219 37.304C517.902 36.6213 518.712 36.28 519.651 36.28H539.875C542.264 36.28 544.099 37.432 545.379 39.736L563.939 70.456L582.499 39.736C583.779 37.432 585.614 36.28 588.003 36.28Z" fill="white"/>
<path d="M663.776 36.28H701.92C714.208 36.28 723.808 38.9253 730.72 44.216C737.632 49.5067 741.088 57.3147 741.088 67.64C741.088 77.9653 737.632 85.6027 730.72 90.552C723.893 95.5013 714.293 97.976 701.92 97.976H693.6V122.424C693.6 123.363 693.259 124.173 692.576 124.856C691.893 125.539 691.083 125.88 690.144 125.88H663.776C662.837 125.88 662.027 125.539 661.344 124.856C660.661 124.173 660.32 123.363 660.32 122.424V39.736C660.32 38.7973 660.661 37.9867 661.344 37.304C662.027 36.6213 662.837 36.28 663.776 36.28ZM692.96 60.088V74.296H701.92C703.456 74.296 704.821 73.7413 706.016 72.632C707.211 71.4373 707.808 69.7733 707.808 67.64C707.808 65.5067 707.339 63.7147 706.4 62.264C705.461 60.8133 703.968 60.088 701.92 60.088H692.96Z" fill="white"/>
<path d="M788.651 36.28H826.795C839.083 36.28 848.683 38.9253 855.595 44.216C862.507 49.5067 865.963 57.3147 865.963 67.64C865.963 77.9653 862.507 85.6027 855.595 90.552C848.768 95.5013 839.168 97.976 826.795 97.976H818.475V122.424C818.475 123.363 818.134 124.173 817.451 124.856C816.768 125.539 815.958 125.88 815.019 125.88H788.651C787.712 125.88 786.902 125.539 786.219 124.856C785.536 124.173 785.195 123.363 785.195 122.424V39.736C785.195 38.7973 785.536 37.9867 786.219 37.304C786.902 36.6213 787.712 36.28 788.651 36.28ZM817.835 60.088V74.296H826.795C828.331 74.296 829.696 73.7413 830.891 72.632C832.086 71.4373 832.683 69.7733 832.683 67.64C832.683 65.5067 832.214 63.7147 831.275 62.264C830.336 60.8133 828.843 60.088 826.795 60.088H817.835Z" fill="white"/>
<path d="M180.382 181.599C179.721 190.078 168.973 194.91 166.121 194.91C163.268 194.91 176.579 181.599 172.776 159.731C170.297 145.47 164.558 142.503 161.367 132.159C157.425 119.386 158.515 104.586 158.515 104.586L172.575 114.897C171.159 113.823 162.774 106.878 163.131 93.1767C163.453 80.788 168.104 62.7415 172.776 53.2438C181.195 36.1297 213.521 0 213.521 0C213.521 0 223.028 29.4743 230.634 46.5883C238.24 63.7024 235.433 73.2102 234.437 83.6688C233.441 94.1274 220.176 111.242 210.668 118.848C198.312 128.733 186.9 136.913 186.9 136.913C186.9 136.913 204.013 101.734 208.767 93.1767C213.521 84.6196 217.324 76.0626 217.324 64.6532C217.324 55.935 206.865 44.9509 200.21 47.5391C198.438 48.2283 186.086 108.389 180.382 181.599Z" fill="#FBA806"/>
<path d="M107.036 26.6219H126.051V45.6376H107.036V26.6219Z" fill="white"/>
<path d="M99.43 3.80313H116.544V20.9172H99.43V3.80313Z" fill="white"/>
<path d="M74.7104 11.4094H91.824V28.5235H74.7104V11.4094Z" fill="white"/>
<path d="M129.854 7.60626H137.46V15.2125H129.854V7.60626Z" fill="white"/>
<path d="M67.1043 72.2595V241.499C67.1043 247.8 72.2123 252.908 78.5134 252.908H201.161C207.462 252.908 212.57 247.8 212.57 241.499V135.011C212.57 128.71 207.462 123.602 201.161 123.602H148.869C142.568 123.602 137.46 118.494 137.46 112.192V72.2595C137.46 65.9582 132.352 60.8501 126.051 60.8501H78.5134C72.2123 60.8501 67.1043 65.9582 67.1043 72.2595Z" fill="url(#paint0_linear_1182_12568)"/>
<path d="M214.609 240.548C213.948 249.026 203.2 253.859 200.348 253.859C197.496 253.859 210.806 240.548 207.004 218.68C204.524 204.418 198.786 201.451 195.594 191.107C191.653 178.335 192.742 163.535 192.742 163.535L206.802 173.845C205.386 172.772 197.001 165.827 197.358 152.125C197.68 139.736 202.332 121.69 207.004 112.192C215.422 95.0782 247.748 58.9485 247.748 58.9485C247.748 58.9485 257.256 88.4228 264.862 105.537C272.468 122.651 269.661 132.159 268.665 142.617C267.669 153.076 254.403 170.19 244.896 177.796C232.539 187.682 221.127 195.861 221.127 195.861C221.127 195.861 238.24 160.682 242.994 152.125C247.748 143.568 251.551 135.011 251.551 123.602C251.551 114.884 241.093 103.899 234.437 106.488C232.665 107.177 220.314 167.338 214.609 240.548Z" fill="#FBA806"/>
<path d="M98.0847 193.941C98.7531 179.537 94.8004 165.297 86.8034 153.299C78.5263 142.608 68.6747 133.235 57.5852 125.5C47.9454 118.487 39.0314 110.526 30.9765 101.738C24.4344 93.8485 20.4846 84.1337 19.6656 73.9177C19.1176 63.4071 21.7459 52.9748 27.2083 43.9785C33.6513 34.0155 42.1629 25.5558 52.165 19.1741C52.7316 18.7829 53.1574 18.2201 53.3799 17.5686C53.6023 16.9171 53.6096 16.2113 53.4007 15.5554C53.2307 15.1371 52.9682 14.7627 52.6329 14.4604C52.2976 14.158 51.8982 13.9355 51.4647 13.8096C51.0311 13.6837 50.5746 13.6575 50.1295 13.7332C49.6845 13.8089 49.2623 13.9843 48.8947 14.2465C36.019 18.0511 24.5352 25.5344 15.8545 35.7768C6.24047 46.4756 0.652202 60.1885 0.0497101 74.5598C-0.234815 81.8236 0.70358 89.0834 2.82568 96.0361C5.19779 102.952 8.57984 109.478 12.862 115.404C21.4445 125.929 31.5862 135.079 42.9352 142.538C52.6595 149.229 61.6225 156.933 69.6448 165.492C76.6567 173.382 80.6368 183.507 80.8747 194.061C81.6889 205.107 78.9476 216.109 73.0535 225.534C66.5246 235.417 57.7689 243.631 47.4897 249.516C47.1565 249.656 46.8569 249.864 46.6103 250.128C46.3637 250.392 46.1759 250.706 46.0591 251.048C45.9424 251.39 45.8994 251.752 45.933 252.112C45.9666 252.472 46.076 252.82 46.2541 253.135C46.5853 253.973 47.312 254.636 48.1902 254.883C49.0684 255.129 50.0323 254.988 50.7708 254.457C62.983 249.3 74 241.679 83.1333 232.07C92.1993 221.272 97.427 207.904 98.0847 193.941Z" fill="white"/>
<path d="M124.853 167.338C124.853 171.538 121.448 174.944 117.247 174.944C113.047 174.944 109.641 171.538 109.641 167.338C109.641 163.137 113.047 159.731 117.247 159.731C121.448 159.731 124.853 163.137 124.853 167.338Z" fill="#017991"/>
<path d="M124.853 252.908H109.641V195.861C109.641 191.66 113.047 188.255 117.247 188.255C121.448 188.255 124.853 191.66 124.853 195.861V252.908Z" fill="#017991"/>
<path d="M185.702 252.908H170.49V195.861C170.49 191.66 173.895 188.255 178.096 188.255C182.297 188.255 185.702 191.66 185.702 195.861V252.908Z" fill="#017991"/>
<path d="M155.278 252.908H140.066V211.074C140.066 206.873 143.471 203.467 147.672 203.467C151.872 203.467 155.278 206.873 155.278 211.074V252.908Z" fill="#017991"/>
<defs>
<linearGradient id="paint0_linear_1182_12568" x1="107.189" y1="141.386" x2="-135.568" y2="363.788" gradientUnits="userSpaceOnUse">
<stop stop-color="white"/>
<stop offset="1" stop-color="#017991"/>
</linearGradient>
</defs>
</svg>
